<svg width="26" height="26" viewBox="0 0 26 26" fill="none" xmlns="http://www.w3.org/2000/svg">
<circle cx="12.75" cy="13" r="12.75" fill="black" fill-opacity="0.1"/>
<path d="M16.5997 12.649V11.299C16.6003 10.3866 16.293 9.50066 15.7276 8.7845C15.1623 8.06834 14.3719 7.56381 13.4843 7.3525C13.4909 7.3263 13.4962 7.29976 13.5 7.273V5.5C13.5 5.30109 13.421 5.11032 13.2803 4.96967C13.1397 4.82902 12.9489 4.75 12.75 4.75C12.5511 4.75 12.3603 4.82902 12.2197 4.96967C12.079 5.11032 12 5.30109 12 5.5V7.273C12.0038 7.29976 12.0091 7.3263 12.0157 7.3525C11.1281 7.56381 10.3377 8.06834 9.77238 8.7845C9.20702 9.50066 8.89975 10.3866 8.90025 11.299V12.649C8.90025 14.4385 7.5 14.8855 7.5 15.7802C7.5 16.225 7.5 16.675 7.9035 16.675H17.5965C18 16.675 18 16.225 18 15.7802C18 14.8855 16.5997 14.4385 16.5997 12.649ZM10.3672 17.425C10.5662 17.8923 10.8982 18.2907 11.3218 18.5708C11.7455 18.8509 12.2421 19.0002 12.75 19.0002C13.2579 19.0002 13.7545 18.8509 14.1782 18.5708C14.6018 18.2907 14.9338 17.8923 15.1328 17.425H10.3672Z" fill="black" fill-opacity="0.8"/>
</svg>
