<svg width="15" height="18" viewBox="0 0 15 18" fill="none" xmlns="http://www.w3.org/2000/svg">
<path d="M3.00652 9.90834L1 15.6919L3.49021 14.889L4.95154 17L6.65238 12.3243M11.9925 9.90834L14 15.6919L11.5089 14.889L10.0475 17L8.34669 12.3243M4.86486 2.1446C5.40541 2.20594 5.93942 1.99123 6.27679 1.57806C6.42332 1.39791 6.61016 1.25228 6.82325 1.15215C7.03634 1.05202 7.27012 1 7.50699 1C7.74386 1 7.97764 1.05202 8.19073 1.15215C8.40382 1.25228 8.59066 1.39791 8.73719 1.57806C8.90291 1.78141 9.1197 1.94025 9.36688 2.03943C9.61406 2.13861 9.88337 2.17482 10.1491 2.1446C10.3842 2.11764 10.6225 2.14263 10.8462 2.21769C11.0699 2.29275 11.2731 2.41594 11.4405 2.57797C11.6079 2.74001 11.7351 2.93668 11.8127 3.15319C11.8902 3.3697 11.916 3.60041 11.8882 3.82797C11.8248 4.35121 12.0466 4.86904 12.4734 5.19561C12.6594 5.33745 12.8097 5.51826 12.913 5.72445C13.0163 5.93063 13.07 6.15681 13.07 6.38597C13.07 6.61513 13.0163 6.84131 12.913 7.04749C12.8097 7.25367 12.6594 7.43449 12.4734 7.57633C12.2634 7.73675 12.0993 7.94661 11.9968 8.18587C11.8944 8.42514 11.8569 8.68582 11.8882 8.94306C11.916 9.17062 11.8902 9.40134 11.8127 9.61785C11.7351 9.83436 11.6079 10.031 11.4405 10.1931C11.2731 10.3551 11.0699 10.4783 10.8462 10.5533C10.6225 10.6284 10.3842 10.6534 10.1491 10.6264C9.88322 10.5961 9.61372 10.6322 9.36637 10.7314C9.11901 10.8306 8.90206 10.9895 8.73625 11.193C8.58972 11.373 8.40292 11.5184 8.18992 11.6185C7.97692 11.7185 7.74327 11.7705 7.50652 11.7705C7.26978 11.7705 7.03612 11.7185 6.82312 11.6185C6.61012 11.5184 6.42333 11.373 6.27679 11.193C6.11107 10.9896 5.89428 10.8308 5.6471 10.7316C5.39992 10.6324 5.13061 10.5962 4.86486 10.6264C4.6297 10.6536 4.39126 10.6287 4.16747 10.5537C3.94368 10.4787 3.74038 10.3555 3.57288 10.1935C3.40537 10.0314 3.27803 9.83468 3.20043 9.6181C3.12283 9.40151 3.097 9.17071 3.12488 8.94306C3.15621 8.6859 3.11895 8.42527 3.01666 8.18601C2.91436 7.94675 2.75044 7.73685 2.54054 7.57633C2.35443 7.4345 2.20399 7.25364 2.10055 7.04737C1.99711 6.8411 1.94336 6.61481 1.94336 6.38552C1.94336 6.15623 1.99711 5.92993 2.10055 5.72367C2.20399 5.5174 2.35443 5.33654 2.54054 5.1947C2.96738 4.86904 3.18919 4.35121 3.12488 3.82797C3.097 3.60033 3.12283 3.36953 3.20043 3.15294C3.27803 2.93636 3.40537 2.73963 3.57288 2.57758C3.74038 2.41552 3.94368 2.29236 4.16747 2.21736C4.39126 2.14237 4.6297 2.11749 4.86486 2.1446ZM9.37092 6.38462C9.37092 6.86314 9.17454 7.32206 8.82499 7.66042C8.47543 7.99879 8.00134 8.18888 7.50699 8.18888C7.01264 8.18888 6.53855 7.99879 6.18899 7.66042C5.83944 7.32206 5.64306 6.86314 5.64306 6.38462C5.64306 5.9061 5.83944 5.44717 6.18899 5.10881C6.53855 4.77044 7.01264 4.58035 7.50699 4.58035C8.00134 4.58035 8.47543 4.77044 8.82499 5.10881C9.17454 5.44717 9.37092 5.9061 9.37092 6.38462Z" stroke="black" stroke-opacity="0.8" stroke-linecap="round" stroke-linejoin="round"/>
</svg>
