<svg width="72" height="19" viewBox="0 0 72 19" fill="none" xmlns="http://www.w3.org/2000/svg">
<path d="M0.78825 18.48V0.48H10.2443V18.48H0.78825ZM12.7162 18.552V0.383999H15.4283V6.432H17.3963V9.024H15.4283V18.552H12.7162ZM3.74025 15.864H7.29225V3.072H3.74025V15.864ZM35.0501 8.64V11.064H18.5381V8.64H35.0501ZM33.9461 12.192V18.552H19.6421V12.192H33.9461ZM31.2581 14.4H22.3301V16.32H31.2581V14.4ZM22.7621 7.44C22.2981 7.44 21.8661 7.36 21.4661 7.2C21.0821 7.04 20.7381 6.816 20.4341 6.528C20.1461 6.224 19.9141 5.856 19.7381 5.424C19.5781 4.992 19.4981 4.504 19.4981 3.96C19.4981 3.432 19.5781 2.96 19.7381 2.544C19.9141 2.112 20.1461 1.744 20.4341 1.44C20.7381 1.136 21.0821 0.903999 21.4661 0.743999C21.8661 0.567999 22.2981 0.48 22.7621 0.48H30.8261C31.2581 0.48 31.6741 0.559999 32.0741 0.719999C32.4741 0.863999 32.8181 1.088 33.1061 1.392C33.4101 1.68 33.6501 2.04 33.8261 2.472C34.0021 2.904 34.0901 3.4 34.0901 3.96C34.0901 4.504 34.0021 4.992 33.8261 5.424C33.6661 5.84 33.4341 6.2 33.1301 6.504C32.8421 6.808 32.4981 7.04 32.0981 7.2C31.7141 7.36 31.2901 7.44 30.8261 7.44H22.7621ZM30.7301 4.848C30.9701 4.848 31.1541 4.76 31.2821 4.584C31.4261 4.408 31.4981 4.2 31.4981 3.96C31.4981 3.72 31.4261 3.512 31.2821 3.336C31.1381 3.16 30.9541 3.072 30.7301 3.072H22.8341C22.5781 3.072 22.3861 3.168 22.2581 3.36C22.1301 3.552 22.0661 3.752 22.0661 3.96C22.0661 4.184 22.1301 4.392 22.2581 4.584C22.3861 4.76 22.5781 4.848 22.8341 4.848H30.7301ZM42.168 3.12C41.896 3.12 41.64 3.176 41.4 3.288C41.16 3.384 40.944 3.52 40.752 3.696C40.56 3.856 40.416 4.056 40.32 4.296C40.224 4.536 40.176 4.792 40.176 5.064V13.896C40.176 14.168 40.224 14.424 40.32 14.664C40.416 14.888 40.56 15.088 40.752 15.264C40.944 15.44 41.16 15.584 41.4 15.696C41.64 15.792 41.896 15.84 42.168 15.84H43.032C43.304 15.84 43.552 15.792 43.776 15.696C44 15.584 44.2 15.44 44.376 15.264C44.552 15.072 44.688 14.864 44.784 14.64C44.88 14.4 44.928 14.152 44.928 13.896V5.064C44.928 4.808 44.88 4.568 44.784 4.344C44.688 4.104 44.552 3.896 44.376 3.72C44.216 3.544 44.016 3.4 43.776 3.288C43.552 3.176 43.312 3.12 43.056 3.12H42.168ZM43.176 0.383999C43.8 0.383999 44.384 0.511999 44.928 0.767999C45.472 1.024 45.944 1.368 46.344 1.8C46.76 2.216 47.08 2.712 47.304 3.288C47.544 3.848 47.664 4.44 47.664 5.064V13.896C47.664 14.52 47.544 15.112 47.304 15.672C47.064 16.232 46.736 16.728 46.32 17.16C45.92 17.592 45.44 17.928 44.88 18.168C44.32 18.424 43.728 18.552 43.104 18.552H42.168C41.512 18.552 40.896 18.432 40.32 18.192C39.744 17.952 39.24 17.624 38.808 17.208C38.392 16.776 38.056 16.28 37.8 15.72C37.56 15.16 37.44 14.552 37.44 13.896V5.064C37.44 4.408 37.56 3.8 37.8 3.24C38.056 2.68 38.392 2.192 38.808 1.776C39.24 1.344 39.744 1.008 40.32 0.767999C40.896 0.511999 41.512 0.383999 42.168 0.383999H43.176ZM52.8 18.552H49.848V0.383999H52.8V18.552ZM71.8939 8.64V11.064H55.3819V8.64H71.8939ZM70.7899 12.192V18.552H56.4859V12.192H70.7899ZM68.1019 14.4H59.1739V16.32H68.1019V14.4ZM59.6059 7.44C59.1419 7.44 58.7099 7.36 58.3099 7.2C57.9259 7.04 57.5819 6.816 57.2779 6.528C56.9899 6.224 56.7579 5.856 56.5819 5.424C56.4219 4.992 56.3419 4.504 56.3419 3.96C56.3419 3.432 56.4219 2.96 56.5819 2.544C56.7579 2.112 56.9899 1.744 57.2779 1.44C57.5819 1.136 57.9259 0.903999 58.3099 0.743999C58.7099 0.567999 59.1419 0.48 59.6059 0.48H67.6699C68.1019 0.48 68.5179 0.559999 68.9179 0.719999C69.3179 0.863999 69.6619 1.088 69.9499 1.392C70.2539 1.68 70.4939 2.04 70.6699 2.472C70.8459 2.904 70.9339 3.4 70.9339 3.96C70.9339 4.504 70.8459 4.992 70.6699 5.424C70.5099 5.84 70.2779 6.2 69.9739 6.504C69.6859 6.808 69.3419 7.04 68.9419 7.2C68.5579 7.36 68.1339 7.44 67.6699 7.44H59.6059ZM67.5739 4.848C67.8139 4.848 67.9979 4.76 68.1259 4.584C68.2699 4.408 68.3419 4.2 68.3419 3.96C68.3419 3.72 68.2699 3.512 68.1259 3.336C67.9819 3.16 67.7979 3.072 67.5739 3.072H59.6779C59.4219 3.072 59.2299 3.168 59.1019 3.36C58.9739 3.552 58.9099 3.752 58.9099 3.96C58.9099 4.184 58.9739 4.392 59.1019 4.584C59.2299 4.76 59.4219 4.848 59.6779 4.848H67.5739Z" fill="url(#paint0_linear_97_2232)"/>
<defs>
<linearGradient id="paint0_linear_97_2232" x1="-1.67911" y1="1.49403" x2="6.58741" y2="33.9242" gradientUnits="userSpaceOnUse">
<stop offset="0.455" stop-color="#371FF0"/>
<stop offset="1" stop-color="#884EDA"/>
</linearGradient>
</defs>
</svg>
