<svg width="26" height="26" viewBox="0 0 26 26" fill="none" xmlns="http://www.w3.org/2000/svg">
<circle cx="12.875" cy="13" r="12.75" fill="black" fill-opacity="0.1"/>
<path fill-rule="evenodd" clip-rule="evenodd" d="M14.5148 6.59553C14.5703 6.70326 14.5843 6.8416 14.6117 7.11827C14.664 7.64102 14.6901 7.9024 14.7998 8.04647C14.8681 8.13593 14.9589 8.2057 15.0629 8.2487C15.1669 8.2917 15.2805 8.30639 15.392 8.29128C15.5705 8.26769 15.7745 8.1013 16.1812 7.76853C16.3961 7.59194 16.5038 7.50396 16.6192 7.46699C16.7661 7.42003 16.9252 7.42795 17.0667 7.4893C17.1783 7.53775 17.2771 7.63592 17.4728 7.83227L18.0427 8.4022C18.2391 8.59855 18.3372 8.69672 18.3857 8.80829C18.447 8.94985 18.455 9.10885 18.408 9.25581C18.371 9.3712 18.2831 9.47894 18.1071 9.69377C17.7737 10.1011 17.6073 10.3045 17.5831 10.4836C17.5682 10.5951 17.583 10.7086 17.6261 10.8125C17.6692 10.9164 17.7391 11.0071 17.8285 11.0752C17.972 11.1849 18.234 11.211 18.7574 11.2633C19.0334 11.2907 19.1717 11.3047 19.2801 11.3602C19.4168 11.4311 19.5233 11.5491 19.5797 11.6923C19.625 11.8052 19.625 11.9441 19.625 12.2221V13.0279C19.625 13.3059 19.625 13.4448 19.5804 13.557C19.5237 13.7007 19.4168 13.819 19.2795 13.8898C19.1717 13.9453 19.0334 13.9593 18.7567 13.9867C18.234 14.039 17.9726 14.0651 17.8285 14.1748C17.7391 14.2431 17.6693 14.3339 17.6263 14.4379C17.5833 14.5419 17.5686 14.6555 17.5837 14.767C17.608 14.9455 17.7743 15.1495 18.1071 15.5562C18.2831 15.7711 18.371 15.8782 18.408 15.9942C18.455 16.1411 18.447 16.3002 18.3857 16.4417C18.3372 16.5533 18.2391 16.6515 18.0427 16.8478L17.4728 17.4171C17.2765 17.6141 17.1783 17.7122 17.0667 17.7601C16.9252 17.8214 16.7661 17.8293 16.6192 17.7824C16.5038 17.7454 16.3961 17.6574 16.1812 17.4815C15.7739 17.1487 15.5705 16.9823 15.392 16.9587C15.2805 16.9436 15.1669 16.9583 15.0629 17.0013C14.9589 17.0443 14.8681 17.1141 14.7998 17.2035C14.6901 17.347 14.664 17.6083 14.6117 18.1317C14.5843 18.4084 14.5703 18.5467 14.5148 18.6545C14.4442 18.7917 14.3261 18.8986 14.1827 18.9554C14.0698 19 13.9309 19 13.6529 19H12.8471C12.5691 19 12.4302 19 12.318 18.9554C12.1743 18.8987 12.056 18.7918 11.9852 18.6545C11.9297 18.5467 11.9157 18.4084 11.8883 18.1317C11.836 17.609 11.8099 17.3476 11.7002 17.2035C11.632 17.1142 11.5413 17.0445 11.4374 17.0015C11.3335 16.9585 11.2201 16.9437 11.1086 16.9587C10.9295 16.9823 10.7261 17.1487 10.3188 17.4815C10.1039 17.6581 9.9962 17.746 9.88081 17.783C9.73385 17.83 9.57485 17.822 9.43329 17.7607C9.32172 17.7122 9.22291 17.6141 9.0272 17.4177L8.45727 16.8478C8.26092 16.6515 8.16275 16.5533 8.1143 16.4417C8.05295 16.3002 8.04503 16.1411 8.09199 15.9942C8.12896 15.8788 8.21694 15.7711 8.39289 15.5562C8.7263 15.1489 8.89269 14.9455 8.91628 14.7664C8.93127 14.6549 8.91652 14.5415 8.87353 14.4376C8.83054 14.3337 8.76083 14.243 8.67147 14.1748C8.52804 14.0651 8.26602 14.039 7.74264 13.9867C7.4666 13.9593 7.32826 13.9453 7.21989 13.8898C7.08317 13.8189 6.97674 13.7009 6.92026 13.5577C6.875 13.4448 6.875 13.3059 6.875 13.0279V12.2221C6.875 11.9441 6.875 11.8052 6.91962 11.693C6.97629 11.5493 7.08322 11.431 7.22053 11.3602C7.32826 11.3047 7.4666 11.2907 7.74327 11.2633C8.26602 11.211 8.52804 11.1849 8.67147 11.0752C8.76094 11.0071 8.83078 10.9164 8.87388 10.8125C8.91699 10.7086 8.93184 10.5951 8.91691 10.4836C8.89269 10.3045 8.72566 10.1011 8.39289 9.69314C8.21694 9.4783 8.12896 9.3712 8.09199 9.25518C8.04503 9.10821 8.05295 8.94921 8.1143 8.80765C8.16275 8.69673 8.26092 8.59791 8.45727 8.40156L9.0272 7.83227C9.22355 7.63592 9.32172 7.53711 9.43329 7.4893C9.57485 7.42795 9.73385 7.42003 9.88081 7.46699C9.9962 7.50396 10.1039 7.59194 10.3188 7.76789C10.7261 8.10066 10.9295 8.26705 11.108 8.29128C11.2197 8.30643 11.3334 8.2917 11.4376 8.24859C11.5417 8.20547 11.6326 8.13551 11.7009 8.04584C11.8092 7.9024 11.836 7.64102 11.8883 7.11764C11.9157 6.8416 11.9297 6.70326 11.9852 6.59489C12.056 6.45793 12.174 6.35126 12.3173 6.29462C12.4302 6.25 12.5691 6.25 12.8471 6.25H13.6529C13.9309 6.25 14.0698 6.25 14.182 6.29462C14.3257 6.35129 14.444 6.45822 14.5148 6.59553ZM13.25 15.175C13.9263 15.175 14.5749 14.9063 15.0531 14.4281C15.5313 13.9499 15.8 13.3013 15.8 12.625C15.8 11.9487 15.5313 11.3001 15.0531 10.8219C14.5749 10.3437 13.9263 10.075 13.25 10.075C12.5737 10.075 11.9251 10.3437 11.4469 10.8219C10.9687 11.3001 10.7 11.9487 10.7 12.625C10.7 13.3013 10.9687 13.9499 11.4469 14.4281C11.9251 14.9063 12.5737 15.175 13.25 15.175Z" fill="black" fill-opacity="0.8"/>
</svg>
