<svg width="25" height="24" viewBox="0 0 25 24" fill="none" xmlns="http://www.w3.org/2000/svg">
<path fill-rule="evenodd" clip-rule="evenodd" d="M6.94444 5.33333C6.94444 3.91885 7.52976 2.56229 8.57163 1.5621C9.6135 0.561903 11.0266 0 12.5 0C13.9734 0 15.3865 0.561903 16.4284 1.5621C17.4702 2.56229 18.0556 3.91885 18.0556 5.33333C18.0556 6.74782 17.4702 8.10438 16.4284 9.10457C15.3865 10.1048 13.9734 10.6667 12.5 10.6667C11.0266 10.6667 9.6135 10.1048 8.57163 9.10457C7.52976 8.10438 6.94444 6.74782 6.94444 5.33333ZM6.94444 13.3333C5.10266 13.3333 3.33632 14.0357 2.03398 15.286C0.731645 16.5362 0 18.2319 0 20C0 21.0609 0.438987 22.0783 1.22039 22.8284C2.00179 23.5786 3.0616 24 4.16667 24H20.8333C21.9384 24 22.9982 23.5786 23.7796 22.8284C24.561 22.0783 25 21.0609 25 20C25 18.2319 24.2684 16.5362 22.966 15.286C21.6637 14.0357 19.8973 13.3333 18.0556 13.3333H6.94444Z" fill="black"/>
</svg>
